<?xml version="1.0" encoding="utf-8"?>
<!-- Generator: Adobe Illustrator 28.3.0, SVG Export Plug-In . SVG Version: 6.00 Build 0)  -->
<svg version="1.1" id="Layer_1" xmlns="http://www.w3.org/2000/svg" xmlns:xlink="http://www.w3.org/1999/xlink" x="0px" y="0px"
	 viewBox="0 0 1298.9 280.7" style="enable-background:new 0 0 1298.9 280.7;" xml:space="preserve">
<style type="text/css">
	.st0{fill:none;}
	.st1{fill:#D3DDE8;}
	.st2{fill:#004C89;}
	.st3{fill:#FFFFFF;}
	.st4{font-family:'Korb';}
	.st5{font-size:130px;}
	.st6{font-size:66px;}
</style>
<rect class="st0" width="1298.9" height="280.7"/>
<path class="st1" d="M0,0v280.7h280.7c31.7-90.4,31.8-190.2,0-280.7H0z"/>
<path class="st2" d="M280.7,0c31.8,90.5,31.7,190.3,0,280.7h280.7V0H280.7z"/>
<path class="st3" d="M332.1,46.8c-2.6,0-4.6,2.1-4.6,4.6l-0.1,84.3c0,2.5,2.1,4.6,4.6,4.6h9.3c2.5,0,4.6-2.1,4.6-4.6l0.1-84.3
	c0-2.5-2.1-4.6-4.6-4.6C341.4,46.8,332.1,46.8,332.1,46.8z M370.1,46.8c-2.5,0-4.6,2.1-4.6,4.6v84.3c0,2.5,2.1,4.6,4.6,4.6h9.2
	c2.6,0,4.6-2.1,4.6-4.6v-34.8h37.2v34.8c0,2.5,2.1,4.6,4.6,4.6h9.2c2.5,0,4.6-2.1,4.6-4.6V51.5c0-2.5-2.1-4.6-4.6-4.6h-9.2
	c-2.5,0-4.6,2.1-4.6,4.6v33.9h-37.2V51.5c0-2.5-2.1-4.6-4.6-4.6h-9.2V46.8z M463.6,46.8c-2.5,0-4.6,2.1-4.6,4.6v84.3
	c0,2.5,2.1,4.6,4.6,4.6h8.6c2.5,0,4.6-2.1,4.6-4.6v-22.1L492.3,97l24,38.8c1.6,2.5,3.7,4.6,6.3,4.6h12.8c2.6,0,3.4-2.1,1.8-4.6
	l-33.1-52.1l28.7-32.3c2.3-2.5,2.1-4.6-0.5-4.6h-12.6c-2.6,0-3.8-0.3-7.9,3.8l-35,37.9l-0.1-37.1c0-2.5-2.1-4.6-4.6-4.6L463.6,46.8
	L463.6,46.8z"/>
<text transform="matrix(1 0 0 1 596.1964 140.4375)" class="st4 st5">Bildungshaus</text>
<text transform="matrix(1 0 0 1 598.114 233.4783)" class="st4 st6">IHK Region Stuttgart</text>
</svg>
